<svg width="16" height="16" viewBox="0 0 16 16" fill="none" xmlns="http://www.w3.org/2000/svg">
<path d="M13.5 7V4" stroke="black" stroke-linecap="round" stroke-linejoin="round"/>
<path d="M15 5.5H12" stroke="black" stroke-linecap="round" stroke-linejoin="round"/>
<path d="M10.5 1.5V3.5" stroke="black" stroke-linecap="round" stroke-linejoin="round"/>
<path d="M11.5 2.5H9.5" stroke="black" stroke-linecap="round" stroke-linejoin="round"/>
<path d="M13.5437 9.53731C12.562 9.81258 11.5247 9.8216 10.5384 9.56344C9.55213 9.30528 8.65232 8.78924 7.9314 8.06832C7.21048 7.3474 6.69444 6.44759 6.43628 5.46128C6.17812 4.47497 6.18714 3.43772 6.46242 2.45605C5.49458 2.72544 4.61421 3.24369 3.90901 3.9592C3.2038 4.67471 2.69836 5.5625 2.44303 6.53413C2.18771 7.50577 2.19141 8.52735 2.45377 9.49711C2.71613 10.4669 3.22799 11.351 3.93837 12.0613C4.64875 12.7717 5.53285 13.2836 6.50261 13.5459C7.47237 13.8083 8.49395 13.812 9.46559 13.5567C10.4372 13.3014 11.325 12.7959 12.0405 12.0907C12.756 11.3855 13.2743 10.5051 13.5437 9.53731Z" stroke="black" stroke-linecap="round" stroke-linejoin="round"/>
</svg> 